<?xml version="1.0" encoding="UTF-8" standalone="no"?>
<!DOCTYPE svg PUBLIC "-//W3C//DTD SVG 1.1//EN" "http://www.w3.org/Graphics/SVG/1.1/DTD/svg11.dtd">
<svg width="100%" height="100%" viewBox="0 0 1663 1357" version="1.1" xmlns="http://www.w3.org/2000/svg" xmlns:xlink="http://www.w3.org/1999/xlink" xml:space="preserve" xmlns:serif="http://www.serif.com/" style="fill-rule:evenodd;clip-rule:evenodd;stroke-linejoin:round;stroke-miterlimit:1.41421;">
    <g id="Logo" transform="matrix(4.16667,0,0,4.16667,0,0)">
        <g>
            <g>
                <g transform="matrix(342.974,0,0,-342.974,28.526,152.284)">
                    <path d="M0.836,0.123C0.836,0.12 0.836,0.103 0.836,0.099L0.836,0.083L0.75,0.083L0.75,0.031L0.643,0.031L0.643,0.111C0.643,0.114 0.643,0.124 0.643,0.126C0.643,0.14 0.632,0.151 0.618,0.151C0.604,0.151 0.593,0.14 0.593,0.126C0.593,0.124 0.593,0.117 0.593,0.116L0.484,0.116C0.484,0.126 0.486,0.136 0.487,0.145L0.358,0.145L0.358,0.116L0.272,0.116C0.27,0.125 0.263,0.131 0.254,0.131C0.245,0.131 0.237,0.125 0.236,0.116L0.165,0.116L0.165,0.123C0.165,0.139 0.153,0.151 0.137,0.151C0.122,0.151 0.11,0.139 0.11,0.123C0.11,0.12 0.11,0.088 0.11,0.088L0.001,0.088L0.001,-0.087L0.11,-0.087L0.11,-0.167C0.11,-0.182 0.122,-0.195 0.137,-0.195C0.153,-0.195 0.165,-0.182 0.165,-0.167L0.165,-0.163L0.236,-0.163C0.237,-0.172 0.245,-0.178 0.254,-0.178C0.263,-0.178 0.27,-0.172 0.272,-0.163L0.358,-0.163L0.358,-0.166C0.358,-0.182 0.371,-0.195 0.387,-0.195C0.403,-0.195 0.416,-0.182 0.416,-0.166C0.416,-0.165 0.415,-0.164 0.415,-0.163C0.415,-0.163 0.415,-0.163 0.415,-0.163L0.593,-0.163L0.593,-0.17C0.593,-0.184 0.604,-0.195 0.618,-0.195C0.632,-0.195 0.643,-0.184 0.643,-0.17C0.643,-0.169 0.643,-0.161 0.643,-0.157L0.643,-0.061L0.75,-0.061L0.75,-0.092L0.836,-0.092L0.836,-0.149L0.836,-0.167C0.836,-0.182 0.848,-0.195 0.863,-0.195C0.878,-0.195 0.891,-0.182 0.891,-0.167L0.891,-0.118C0.891,-0.072 0.879,-0.056 0.858,-0.05C0.851,-0.049 0.836,-0.049 0.836,-0.049L0.836,-0.002L0.959,-0.002C0.971,-0.009 0.979,-0.018 0.986,-0.027C0.992,-0.036 0.996,-0.048 0.998,-0.06L0.998,0.059C0.996,0.05 0.994,0.042 0.991,0.035C0.984,0.021 0.974,0.011 0.959,0.004L0.836,0.004L0.836,0.047C0.855,0.047 0.868,0.051 0.878,0.06C0.887,0.068 0.891,0.082 0.891,0.101L0.891,0.123C0.891,0.139 0.878,0.151 0.863,0.151C0.848,0.151 0.836,0.139 0.836,0.123ZM0.241,0.113C0.241,0.12 0.247,0.125 0.254,0.125C0.26,0.125 0.266,0.12 0.266,0.113C0.266,0.106 0.26,0.1 0.254,0.1C0.247,0.1 0.241,0.106 0.241,0.113ZM0.483,0.089C0.483,0.096 0.483,0.103 0.483,0.11L0.593,0.11L0.593,0.004L0.514,-0.05C0.51,-0.047 0.506,-0.045 0.501,-0.045C0.492,-0.045 0.485,-0.052 0.483,-0.06L0.416,-0.06C0.416,-0.06 0.416,-0.029 0.416,-0.024C0.416,-0.008 0.403,0.005 0.387,0.005C0.371,0.005 0.358,-0.008 0.358,-0.024C0.358,-0.024 0.357,-0.036 0.357,-0.04L0.267,-0.04C0.27,-0.047 0.272,-0.054 0.273,-0.062C0.274,-0.071 0.275,-0.082 0.276,-0.095L0.357,-0.095L0.357,-0.14C0.357,-0.146 0.358,-0.157 0.358,-0.157L0.272,-0.157C0.27,-0.149 0.263,-0.142 0.254,-0.142C0.245,-0.142 0.237,-0.149 0.236,-0.157L0.165,-0.157C0.165,-0.157 0.165,-0.112 0.165,-0.112C0.165,-0.067 0.154,-0.052 0.125,-0.045C0.12,-0.044 0.11,-0.044 0.11,-0.044L0.11,0.002L0.232,0.002C0.244,-0.005 0.253,-0.013 0.259,-0.022C0.259,-0.023 0.259,-0.023 0.259,-0.024L0.259,0.033C0.253,0.022 0.244,0.013 0.232,0.008L0.11,0.008L0.11,0.052C0.129,0.052 0.141,0.056 0.151,0.065C0.16,0.073 0.165,0.087 0.165,0.106C0.165,0.11 0.165,0.11 0.165,0.11L0.236,0.11C0.237,0.101 0.245,0.095 0.254,0.095C0.263,0.095 0.27,0.101 0.272,0.11L0.358,0.11L0.358,0.069C0.363,0.076 0.37,0.082 0.379,0.087C0.389,0.091 0.399,0.094 0.411,0.094C0.441,0.094 0.465,0.086 0.483,0.071L0.483,0.089ZM0.519,-0.063C0.519,-0.06 0.519,-0.057 0.517,-0.055L0.593,-0.003L0.593,-0.157L0.416,-0.157L0.416,-0.066L0.483,-0.066C0.485,-0.075 0.492,-0.081 0.501,-0.081C0.511,-0.081 0.519,-0.073 0.519,-0.063ZM0.489,-0.063C0.489,-0.056 0.494,-0.051 0.501,-0.051C0.508,-0.051 0.514,-0.056 0.514,-0.063C0.514,-0.07 0.508,-0.076 0.501,-0.076C0.494,-0.076 0.489,-0.07 0.489,-0.063ZM0.241,-0.16C0.241,-0.153 0.247,-0.148 0.254,-0.148C0.261,-0.148 0.266,-0.153 0.266,-0.16C0.266,-0.167 0.261,-0.173 0.254,-0.173C0.247,-0.173 0.241,-0.167 0.241,-0.16Z" style="fill:url(#_Linear1);fill-rule:nonzero;"/>
                </g>
                <g transform="matrix(1.04988,0,0,1.04988,323.587,-1007.99)">
                    <path d="M-269.449,1016.04L-269.449,1011.43L-254.649,1011.43L-254.649,1002.94L-269.449,1002.94L-269.449,998.833L-252.599,998.833L-252.599,989.939L-281.043,989.939L-281.043,1024.93L-251.949,1024.93L-251.949,1016.04L-269.449,1016.04Z" style="fill:url(#_Linear2);fill-rule:nonzero;"/>
                    <path d="M-234.347,1025.73C-223.496,1025.73 -218.049,1020.34 -218.049,1013.94C-218.049,1001.03 -237.399,1004.53 -237.399,1000.33C-237.399,999.133 -236.298,998.133 -232.845,998.133C-229.793,998.133 -226.544,998.983 -223.096,1000.73L-219.548,992.187C-223.196,990.139 -228.044,989.139 -232.745,989.139C-243.596,989.139 -249.043,994.436 -249.043,1000.93C-249.043,1013.99 -229.693,1010.43 -229.693,1014.84C-229.693,1016.04 -230.894,1016.74 -234.246,1016.74C-238.099,1016.74 -242.496,1015.49 -245.794,1013.53L-249.593,1022.14C-246.094,1024.28 -240.197,1025.73 -234.347,1025.73Z" style="fill:url(#_Linear3);fill-rule:nonzero;"/>
                    <path d="M-197.696,989.939L-214.543,989.939L-214.543,1024.93L-202.749,1024.93L-202.749,1016.33L-197.696,1016.33C-187.946,1016.33 -181.749,1011.24 -181.749,1003.14C-181.749,995.036 -187.946,989.939 -197.696,989.939ZM-198.446,1007.24L-202.749,1007.24L-202.749,999.033L-198.446,999.033C-195.194,999.033 -193.643,1000.58 -193.643,1003.14C-193.643,1005.69 -195.194,1007.24 -198.446,1007.24Z" style="fill:url(#_Linear4);fill-rule:nonzero;"/>
                    <path d="M-166.299,1016.04L-166.299,998.833L-149.449,998.833L-149.449,989.939L-177.893,989.939L-177.893,1024.93L-148.799,1024.93L-148.799,1016.04L-166.299,1016.04Z" style="fill:url(#_Linear5);fill-rule:nonzero;"/>
                    <path d="M-123.293,1024.93L-110.699,1024.93L-118.045,1014.13C-113.848,1011.99 -111.449,1008.19 -111.449,1003.14C-111.449,995.036 -117.646,989.939 -127.396,989.939L-144.243,989.939L-144.243,1024.93L-132.449,1024.93L-132.449,1016.13L-129.247,1016.13L-123.293,1024.93ZM-123.343,1003.14C-123.343,1005.69 -124.894,1007.24 -128.146,1007.24L-132.449,1007.24L-132.449,999.033L-128.146,999.033C-124.894,999.033 -123.343,1000.58 -123.343,1003.14Z" style="fill:url(#_Linear6);fill-rule:nonzero;"/>
                    <path d="M-80.797,1024.93L-68.599,1024.93L-83.897,989.939L-95.495,989.939L-110.793,1024.93L-98.795,1024.93L-96.445,1018.83L-83.147,1018.83L-80.797,1024.93ZM-93.195,1010.34L-89.796,1001.54L-86.396,1010.34L-93.195,1010.34Z" style="fill:url(#_Linear7);fill-rule:nonzero;"/>
                    <path d="M-43.693,989.939L-43.693,1005.84L-56.998,989.939L-66.693,989.939L-66.693,1024.93L-55.199,1024.93L-55.199,1009.04L-41.894,1024.93L-32.199,1024.93L-32.199,989.939L-43.693,989.939Z" style="fill:url(#_Linear8);fill-rule:nonzero;"/>
                    <path d="M-18.893,1024.93L-7.099,1024.93L-7.099,999.083L3.151,999.083L3.151,989.939L-29.143,989.939L-29.143,999.083L-18.893,999.083L-18.893,1024.93Z" style="fill:url(#_Linear9);fill-rule:nonzero;"/>
                    <path d="M24.054,1025.73C35.455,1025.73 43.801,1018.04 43.801,1007.44C43.801,996.834 35.455,989.139 24.054,989.139C12.653,989.139 4.307,996.834 4.307,1007.44C4.307,1018.04 12.653,1025.73 24.054,1025.73ZM24.054,1016.19C19.702,1016.19 16.201,1012.89 16.201,1007.44C16.201,1001.98 19.702,998.683 24.054,998.683C28.406,998.683 31.907,1001.98 31.907,1007.44C31.907,1012.89 28.406,1016.19 24.054,1016.19Z" style="fill:url(#_Linear10);fill-rule:nonzero;"/>
                </g>
                <g transform="matrix(1.24483e-16,-2.03296,2.03296,1.24483e-16,-376.514,338.149)">
                    <g transform="matrix(0.24,0,0,0.0686507,-1.42109e-14,145.317)">
                        <path d="M118.858,848.072L118.858,898.011" style="fill:url(#_Linear11);"/>
                    </g>
                    <g transform="matrix(0.24,0,7.70372e-34,0.0686507,-2.84217e-14,145.317)">
                        <rect x="116.775" y="840.788" width="4.167" height="64.506" style="fill:url(#_Linear12);fill-rule:nonzero;"/>
                    </g>
                    <g transform="matrix(0.237726,0,0,0.237726,-2.98167,-2.37144)">
                        <circle cx="132.538" cy="857.116" r="9.044" style="fill:url(#_Linear13);"/>
                    </g>
                </g>
                <g transform="matrix(1.24483e-16,-2.03296,2.03296,1.24483e-16,-376.514,318.482)">
                    <g transform="matrix(0.24,0,0,0.0686507,-1.42109e-14,145.317)">
                        <path d="M118.858,848.072L118.858,898.011" style="fill:url(#_Linear14);"/>
                    </g>
                    <g transform="matrix(0.24,3.08149e-33,0,0.0686507,-2.84217e-14,145.317)">
                        <rect x="116.775" y="840.788" width="4.167" height="64.506" style="fill:url(#_Linear15);fill-rule:nonzero;"/>
                    </g>
                    <g transform="matrix(0.237726,0,0,0.237726,-2.98167,-2.37144)">
                        <circle cx="132.538" cy="857.116" r="9.044" style="fill:url(#_Linear16);"/>
                    </g>
                </g>
                <g transform="matrix(1.24483e-16,2.03296,-2.03296,1.24483e-16,566.659,212.062)">
                    <g transform="matrix(0.24,0,0,0.0686507,-1.42109e-14,145.317)">
                        <path d="M118.858,848.072L118.858,898.011" style="fill:url(#_Linear17);"/>
                    </g>
                    <g transform="matrix(0.24,1.56035e-33,8.46185e-34,0.166571,-2.84217e-14,56.6695)">
                        <rect x="116.775" y="840.788" width="4.167" height="64.506" style="fill:url(#_Linear18);fill-rule:nonzero;"/>
                    </g>
                    <g transform="matrix(0.237726,0,0,0.237726,-2.98167,-2.37144)">
                        <circle cx="132.538" cy="857.116" r="9.044" style="fill:url(#_Linear19);"/>
                    </g>
                </g>
                <g transform="matrix(1.24483e-16,2.03296,-2.03296,1.24483e-16,569.213,-8.5857)">
                    <g transform="matrix(0.24,0,0,0.0686507,-1.42109e-14,145.317)">
                        <path d="M118.858,848.072L118.858,898.011" style="fill:url(#_Linear20);"/>
                    </g>
                    <g transform="matrix(0.24,-1.11096e-33,-1.20696e-33,0.197201,-2.84217e-14,28.9403)">
                        <rect x="116.775" y="840.788" width="4.167" height="64.506" style="fill:url(#_Linear21);fill-rule:nonzero;"/>
                    </g>
                    <g transform="matrix(0.237726,0,0,0.237726,-2.98167,-2.52495)">
                        <circle cx="132.538" cy="857.116" r="9.044" style="fill:url(#_Linear22);"/>
                    </g>
                </g>
                <g transform="matrix(2.03296,0,0,2.03296,-299.386,-13.2504)">
                    <g transform="matrix(0.236083,0,0,0.236083,258.678,-181.713)">
                        <rect x="116.775" y="848.072" width="4.167" height="14.522" style="fill:url(#_Linear23);fill-rule:nonzero;"/>
                    </g>
                    <g transform="matrix(0.287237,0,0,0.287483,248.669,-230.504)">
                        <path d="M132.607,846.344C137.55,846.391 142.216,850.212 143.131,855.145C144.018,859.928 141.228,865.136 136.732,867.04C131.738,869.154 125.274,866.778 122.857,861.844C120.361,856.75 122.726,849.808 127.985,847.352C129.424,846.68 131.012,846.339 132.607,846.344ZM132.49,849.8C128.374,849.839 124.725,853.891 125.288,858.094C125.75,861.545 128.991,864.409 132.49,864.432C136.807,864.459 140.624,859.998 139.694,855.596C139.023,852.418 136.057,849.876 132.68,849.801C132.617,849.8 132.554,849.8 132.49,849.8Z" style="fill:url(#_Linear24);fill-rule:nonzero;"/>
                    </g>
                </g>
                <g transform="matrix(2.03296,0,0,2.03296,-308.771,211.537)">
                    <g transform="matrix(0.236083,0,0,0.236083,258.678,-181.713)">
                        <rect x="116.775" y="848.072" width="4.167" height="14.522" style="fill:url(#_Linear25);fill-rule:nonzero;"/>
                    </g>
                    <g transform="matrix(0.287237,0,0,0.287483,248.669,-230.504)">
                        <path d="M132.607,846.344C137.822,846.394 142.68,850.687 143.249,855.949C143.741,860.511 140.991,865.236 136.731,867.04C131.73,869.157 125.273,866.778 122.857,861.844C120.358,856.74 122.711,849.816 127.985,847.352C129.423,846.679 131.014,846.339 132.607,846.344ZM132.49,849.8C127.698,849.846 123.712,855.508 125.906,860.205C127.475,863.563 131.852,865.302 135.3,863.892C138.995,862.38 140.936,857.519 139.072,853.827C137.883,851.47 135.372,849.86 132.68,849.801C132.617,849.8 132.554,849.8 132.49,849.8Z" style="fill:url(#_Linear26);fill-rule:nonzero;"/>
                    </g>
                </g>
                <g transform="matrix(0.813065,0,0,0.813065,270.558,-548.812)">
                    <path d="M-260.093,1024.93L-247.499,1024.93L-254.845,1014.13C-250.648,1011.99 -248.249,1008.19 -248.249,1003.14C-248.249,995.036 -254.446,989.939 -264.196,989.939L-281.043,989.939L-281.043,1024.93L-269.249,1024.93L-269.249,1016.13L-266.047,1016.13L-260.093,1024.93ZM-260.143,1003.14C-260.143,1005.69 -261.694,1007.24 -264.946,1007.24L-269.249,1007.24L-269.249,999.033L-264.946,999.033C-261.694,999.033 -260.143,1000.58 -260.143,1003.14Z" style="fill:url(#_Linear27);fill-rule:nonzero;"/>
                    <path d="M-232.199,1016.04L-232.199,1011.43L-217.399,1011.43L-217.399,1002.94L-232.199,1002.94L-232.199,998.833L-215.349,998.833L-215.349,989.939L-243.793,989.939L-243.793,1024.93L-214.699,1024.93L-214.699,1016.04L-232.199,1016.04Z" style="fill:url(#_Linear28);fill-rule:nonzero;"/>
                    <path d="M-168.149,1024.93L-168.249,989.939L-177.943,989.939L-189.046,1008.59L-200.448,989.939L-210.143,989.939L-210.143,1024.93L-199.399,1024.93L-199.399,1009.54L-191.797,1021.78L-186.595,1021.78L-178.993,1008.99L-178.893,1024.93L-168.149,1024.93Z" style="fill:url(#_Linear29);fill-rule:nonzero;"/>
                    <path d="M-150.849,1016.04L-150.849,998.833L-133.999,998.833L-133.999,989.939L-162.443,989.939L-162.443,1024.93L-133.349,1024.93L-133.349,1016.04L-150.849,1016.04Z" style="fill:url(#_Linear30);fill-rule:nonzero;"/>
                    <path d="M-86.799,1024.93L-86.899,989.939L-96.593,989.939L-107.696,1008.59L-119.098,989.939L-128.793,989.939L-128.793,1024.93L-118.049,1024.93L-118.049,1009.54L-110.447,1021.78L-105.245,1021.78L-97.643,1008.99L-97.543,1024.93L-86.799,1024.93Z" style="fill:url(#_Linear31);fill-rule:nonzero;"/>
                    <path d="M-62.746,1025.73C-51.345,1025.73 -42.999,1018.04 -42.999,1007.44C-42.999,996.834 -51.345,989.139 -62.746,989.139C-74.147,989.139 -82.493,996.834 -82.493,1007.44C-82.493,1018.04 -74.147,1025.73 -62.746,1025.73ZM-62.746,1016.19C-67.098,1016.19 -70.599,1012.89 -70.599,1007.44C-70.599,1001.98 -67.098,998.683 -62.746,998.683C-58.394,998.683 -54.893,1001.98 -54.893,1007.44C-54.893,1012.89 -58.394,1016.19 -62.746,1016.19Z" style="fill:url(#_Linear32);fill-rule:nonzero;"/>
                    <path d="M-17.743,1024.93L-5.149,1024.93L-12.495,1014.13C-8.298,1011.99 -5.899,1008.19 -5.899,1003.14C-5.899,995.036 -12.096,989.939 -21.846,989.939L-38.693,989.939L-38.693,1024.93L-26.899,1024.93L-26.899,1016.13L-23.697,1016.13L-17.743,1024.93ZM-17.793,1003.14C-17.793,1005.69 -19.344,1007.24 -22.596,1007.24L-26.899,1007.24L-26.899,999.033L-22.596,999.033C-19.344,999.033 -17.793,1000.58 -17.793,1003.14Z" style="fill:url(#_Linear33);fill-rule:nonzero;"/>
                    <rect x="-1.443" y="989.939" width="11.794" height="34.994" style="fill:url(#_Linear34);fill-rule:nonzero;"/>
                    <path d="M39.207,1015.34C37.756,1015.94 36.356,1016.19 34.905,1016.19C29.853,1016.19 26.551,1012.69 26.551,1007.44C26.551,1002.03 29.853,998.683 35.055,998.683C38.157,998.683 40.706,999.984 42.905,1002.53L50.451,995.885C46.903,991.538 41.356,989.139 34.455,989.139C22.903,989.139 14.657,996.684 14.657,1007.44C14.657,1018.19 22.903,1025.73 34.205,1025.73C39.357,1025.73 45.204,1024.18 49.451,1021.29L49.451,1006.49L39.207,1006.49L39.207,1015.34Z" style="fill:url(#_Linear35);fill-rule:nonzero;"/>
                    <path d="M80.703,1024.93L92.901,1024.93L77.603,989.939L66.005,989.939L50.707,1024.93L62.705,1024.93L65.055,1018.83L78.353,1018.83L80.703,1024.93ZM68.305,1010.34L71.704,1001.54L75.104,1010.34L68.305,1010.34Z" style="fill:url(#_Linear36);fill-rule:nonzero;"/>
                    <path d="M107.853,1025.73C118.704,1025.73 124.151,1020.34 124.151,1013.94C124.151,1001.03 104.801,1004.53 104.801,1000.33C104.801,999.133 105.902,998.133 109.355,998.133C112.407,998.133 115.656,998.983 119.104,1000.73L122.652,992.187C119.004,990.139 114.156,989.139 109.455,989.139C98.604,989.139 93.157,994.436 93.157,1000.93C93.157,1013.99 112.507,1010.43 112.507,1014.84C112.507,1016.04 111.306,1016.74 107.954,1016.74C104.101,1016.74 99.704,1015.49 96.406,1013.53L92.607,1022.14C96.106,1024.28 102.003,1025.73 107.853,1025.73Z" style="fill:url(#_Linear37);fill-rule:nonzero;"/>
                </g>
            </g>
        </g>
    </g>
    <defs>
        <linearGradient id="_Linear1" x1="0" y1="0" x2="1" y2="0" gradientUnits="userSpaceOnUse" gradientTransform="matrix(0.99715,0,0,-0.99715,0.000997167,0.406539)"><stop offset="0" style="stop-color:rgb(0,132,176);stop-opacity:1"/><stop offset="1" style="stop-color:rgb(0,163,86);stop-opacity:1"/></linearGradient>
        <linearGradient id="_Linear2" x1="0" y1="0" x2="1" y2="0" gradientUnits="userSpaceOnUse" gradientTransform="matrix(325.748,0,0,325.748,-280.717,972.342)"><stop offset="0" style="stop-color:rgb(0,132,176);stop-opacity:1"/><stop offset="1" style="stop-color:rgb(0,163,86);stop-opacity:1"/></linearGradient>
        <linearGradient id="_Linear3" x1="0" y1="0" x2="1" y2="0" gradientUnits="userSpaceOnUse" gradientTransform="matrix(325.748,0,0,325.748,-280.717,972.342)"><stop offset="0" style="stop-color:rgb(0,132,176);stop-opacity:1"/><stop offset="1" style="stop-color:rgb(0,163,86);stop-opacity:1"/></linearGradient>
        <linearGradient id="_Linear4" x1="0" y1="0" x2="1" y2="0" gradientUnits="userSpaceOnUse" gradientTransform="matrix(325.748,0,0,325.748,-280.717,972.342)"><stop offset="0" style="stop-color:rgb(0,132,176);stop-opacity:1"/><stop offset="1" style="stop-color:rgb(0,163,86);stop-opacity:1"/></linearGradient>
        <linearGradient id="_Linear5" x1="0" y1="0" x2="1" y2="0" gradientUnits="userSpaceOnUse" gradientTransform="matrix(325.748,0,0,325.748,-280.717,972.342)"><stop offset="0" style="stop-color:rgb(0,132,176);stop-opacity:1"/><stop offset="1" style="stop-color:rgb(0,163,86);stop-opacity:1"/></linearGradient>
        <linearGradient id="_Linear6" x1="0" y1="0" x2="1" y2="0" gradientUnits="userSpaceOnUse" gradientTransform="matrix(325.748,0,0,325.748,-280.717,972.342)"><stop offset="0" style="stop-color:rgb(0,132,176);stop-opacity:1"/><stop offset="1" style="stop-color:rgb(0,163,86);stop-opacity:1"/></linearGradient>
        <linearGradient id="_Linear7" x1="0" y1="0" x2="1" y2="0" gradientUnits="userSpaceOnUse" gradientTransform="matrix(325.748,0,0,325.748,-280.717,972.342)"><stop offset="0" style="stop-color:rgb(0,132,176);stop-opacity:1"/><stop offset="1" style="stop-color:rgb(0,163,86);stop-opacity:1"/></linearGradient>
        <linearGradient id="_Linear8" x1="0" y1="0" x2="1" y2="0" gradientUnits="userSpaceOnUse" gradientTransform="matrix(325.748,0,0,325.748,-280.717,972.342)"><stop offset="0" style="stop-color:rgb(0,132,176);stop-opacity:1"/><stop offset="1" style="stop-color:rgb(0,163,86);stop-opacity:1"/></linearGradient>
        <linearGradient id="_Linear9" x1="0" y1="0" x2="1" y2="0" gradientUnits="userSpaceOnUse" gradientTransform="matrix(325.748,0,0,325.748,-280.717,972.342)"><stop offset="0" style="stop-color:rgb(0,132,176);stop-opacity:1"/><stop offset="1" style="stop-color:rgb(0,163,86);stop-opacity:1"/></linearGradient>
        <linearGradient id="_Linear10" x1="0" y1="0" x2="1" y2="0" gradientUnits="userSpaceOnUse" gradientTransform="matrix(325.748,0,0,325.748,-280.717,972.342)"><stop offset="0" style="stop-color:rgb(0,132,176);stop-opacity:1"/><stop offset="1" style="stop-color:rgb(0,163,86);stop-opacity:1"/></linearGradient>
        <linearGradient id="_Linear11" x1="0" y1="0" x2="1" y2="0" gradientUnits="userSpaceOnUse" gradientTransform="matrix(4.29204e-14,2450.47,-700.944,1.50048e-13,666.716,787.886)"><stop offset="0" style="stop-color:rgb(0,132,176);stop-opacity:1"/><stop offset="1" style="stop-color:rgb(0,163,86);stop-opacity:1"/></linearGradient>
        <linearGradient id="_Linear12" x1="0" y1="0" x2="1" y2="0" gradientUnits="userSpaceOnUse" gradientTransform="matrix(4.29204e-14,2450.47,-700.944,1.50048e-13,666.716,787.886)"><stop offset="0" style="stop-color:rgb(0,132,176);stop-opacity:1"/><stop offset="1" style="stop-color:rgb(0,163,86);stop-opacity:1"/></linearGradient>
        <linearGradient id="_Linear13" x1="0" y1="0" x2="1" y2="0" gradientUnits="userSpaceOnUse" gradientTransform="matrix(4.3331e-14,707.649,-707.649,4.3331e-14,685.636,848.779)"><stop offset="0" style="stop-color:rgb(0,132,176);stop-opacity:1"/><stop offset="1" style="stop-color:rgb(0,163,86);stop-opacity:1"/></linearGradient>
        <linearGradient id="_Linear14" x1="0" y1="0" x2="1" y2="0" gradientUnits="userSpaceOnUse" gradientTransform="matrix(4.29204e-14,2450.47,-700.944,1.50048e-13,626.408,787.886)"><stop offset="0" style="stop-color:rgb(0,132,176);stop-opacity:1"/><stop offset="1" style="stop-color:rgb(0,163,86);stop-opacity:1"/></linearGradient>
        <linearGradient id="_Linear15" x1="0" y1="0" x2="1" y2="0" gradientUnits="userSpaceOnUse" gradientTransform="matrix(4.29204e-14,2450.47,-700.944,1.50048e-13,626.408,787.886)"><stop offset="0" style="stop-color:rgb(0,132,176);stop-opacity:1"/><stop offset="1" style="stop-color:rgb(0,163,86);stop-opacity:1"/></linearGradient>
        <linearGradient id="_Linear16" x1="0" y1="0" x2="1" y2="0" gradientUnits="userSpaceOnUse" gradientTransform="matrix(4.3331e-14,707.649,-707.649,4.3331e-14,644.942,848.779)"><stop offset="0" style="stop-color:rgb(0,132,176);stop-opacity:1"/><stop offset="1" style="stop-color:rgb(0,163,86);stop-opacity:1"/></linearGradient>
        <linearGradient id="_Linear17" x1="0" y1="0" x2="1" y2="0" gradientUnits="userSpaceOnUse" gradientTransform="matrix(4.29204e-14,-2450.47,700.944,1.50048e-13,-408.293,1736.62)"><stop offset="0" style="stop-color:rgb(0,132,176);stop-opacity:1"/><stop offset="1" style="stop-color:rgb(0,163,86);stop-opacity:1"/></linearGradient>
        <linearGradient id="_Linear18" x1="0" y1="0" x2="1" y2="0" gradientUnits="userSpaceOnUse" gradientTransform="matrix(4.29204e-14,-1009.94,700.944,6.18408e-14,-408.293,1247.92)"><stop offset="0" style="stop-color:rgb(0,132,176);stop-opacity:1"/><stop offset="1" style="stop-color:rgb(0,163,86);stop-opacity:1"/></linearGradient>
        <linearGradient id="_Linear19" x1="0" y1="0" x2="1" y2="0" gradientUnits="userSpaceOnUse" gradientTransform="matrix(4.3331e-14,-707.649,707.649,4.3331e-14,-399.656,1122.75)"><stop offset="0" style="stop-color:rgb(0,132,176);stop-opacity:1"/><stop offset="1" style="stop-color:rgb(0,163,86);stop-opacity:1"/></linearGradient>
        <linearGradient id="_Linear20" x1="0" y1="0" x2="1" y2="0" gradientUnits="userSpaceOnUse" gradientTransform="matrix(4.29204e-14,-2450.47,700.944,1.50048e-13,43.9379,1754.92)"><stop offset="0" style="stop-color:rgb(0,132,176);stop-opacity:1"/><stop offset="1" style="stop-color:rgb(0,163,86);stop-opacity:1"/></linearGradient>
        <linearGradient id="_Linear21" x1="0" y1="0" x2="1" y2="0" gradientUnits="userSpaceOnUse" gradientTransform="matrix(4.29204e-14,-853.069,700.944,5.22354e-14,43.9379,1201.07)"><stop offset="0" style="stop-color:rgb(0,132,176);stop-opacity:1"/><stop offset="1" style="stop-color:rgb(0,163,86);stop-opacity:1"/></linearGradient>
        <linearGradient id="_Linear22" x1="0" y1="0" x2="1" y2="0" gradientUnits="userSpaceOnUse" gradientTransform="matrix(4.3331e-14,-707.649,707.649,4.3331e-14,56.9006,1128.68)"><stop offset="0" style="stop-color:rgb(0,132,176);stop-opacity:1"/><stop offset="1" style="stop-color:rgb(0,163,86);stop-opacity:1"/></linearGradient>
        <linearGradient id="_Linear23" x1="0" y1="0" x2="1" y2="0" gradientUnits="userSpaceOnUse" gradientTransform="matrix(712.575,0,0,712.575,-411.772,824.089)"><stop offset="0" style="stop-color:rgb(0,132,176);stop-opacity:1"/><stop offset="1" style="stop-color:rgb(0,163,86);stop-opacity:1"/></linearGradient>
        <linearGradient id="_Linear24" x1="0" y1="0" x2="1" y2="0" gradientUnits="userSpaceOnUse" gradientTransform="matrix(585.671,0,0,585.171,-303.591,846.465)"><stop offset="0" style="stop-color:rgb(0,132,176);stop-opacity:1"/><stop offset="1" style="stop-color:rgb(0,163,86);stop-opacity:1"/></linearGradient>
        <linearGradient id="_Linear25" x1="0" y1="0" x2="1" y2="0" gradientUnits="userSpaceOnUse" gradientTransform="matrix(712.575,0,0,712.575,-392.216,355.729)"><stop offset="0" style="stop-color:rgb(0,132,176);stop-opacity:1"/><stop offset="1" style="stop-color:rgb(0,163,86);stop-opacity:1"/></linearGradient>
        <linearGradient id="_Linear26" x1="0" y1="0" x2="1" y2="0" gradientUnits="userSpaceOnUse" gradientTransform="matrix(585.671,0,0,585.171,-287.518,461.845)"><stop offset="0" style="stop-color:rgb(0,132,176);stop-opacity:1"/><stop offset="1" style="stop-color:rgb(0,163,86);stop-opacity:1"/></linearGradient>
        <linearGradient id="_Linear27" x1="0" y1="0" x2="1" y2="0" gradientUnits="userSpaceOnUse" gradientTransform="matrix(420.627,0,0,420.627,-297.258,690.798)"><stop offset="0" style="stop-color:rgb(0,132,176);stop-opacity:1"/><stop offset="1" style="stop-color:rgb(0,163,86);stop-opacity:1"/></linearGradient>
        <linearGradient id="_Linear28" x1="0" y1="0" x2="1" y2="0" gradientUnits="userSpaceOnUse" gradientTransform="matrix(420.627,0,0,420.627,-297.258,690.798)"><stop offset="0" style="stop-color:rgb(0,132,176);stop-opacity:1"/><stop offset="1" style="stop-color:rgb(0,163,86);stop-opacity:1"/></linearGradient>
        <linearGradient id="_Linear29" x1="0" y1="0" x2="1" y2="0" gradientUnits="userSpaceOnUse" gradientTransform="matrix(420.627,0,0,420.627,-297.258,690.798)"><stop offset="0" style="stop-color:rgb(0,132,176);stop-opacity:1"/><stop offset="1" style="stop-color:rgb(0,163,86);stop-opacity:1"/></linearGradient>
        <linearGradient id="_Linear30" x1="0" y1="0" x2="1" y2="0" gradientUnits="userSpaceOnUse" gradientTransform="matrix(420.627,0,0,420.627,-297.258,690.798)"><stop offset="0" style="stop-color:rgb(0,132,176);stop-opacity:1"/><stop offset="1" style="stop-color:rgb(0,163,86);stop-opacity:1"/></linearGradient>
        <linearGradient id="_Linear31" x1="0" y1="0" x2="1" y2="0" gradientUnits="userSpaceOnUse" gradientTransform="matrix(420.627,0,0,420.627,-297.258,690.798)"><stop offset="0" style="stop-color:rgb(0,132,176);stop-opacity:1"/><stop offset="1" style="stop-color:rgb(0,163,86);stop-opacity:1"/></linearGradient>
        <linearGradient id="_Linear32" x1="0" y1="0" x2="1" y2="0" gradientUnits="userSpaceOnUse" gradientTransform="matrix(420.627,0,0,420.627,-297.258,690.798)"><stop offset="0" style="stop-color:rgb(0,132,176);stop-opacity:1"/><stop offset="1" style="stop-color:rgb(0,163,86);stop-opacity:1"/></linearGradient>
        <linearGradient id="_Linear33" x1="0" y1="0" x2="1" y2="0" gradientUnits="userSpaceOnUse" gradientTransform="matrix(420.627,0,0,420.627,-297.258,690.798)"><stop offset="0" style="stop-color:rgb(0,132,176);stop-opacity:1"/><stop offset="1" style="stop-color:rgb(0,163,86);stop-opacity:1"/></linearGradient>
        <linearGradient id="_Linear34" x1="0" y1="0" x2="1" y2="0" gradientUnits="userSpaceOnUse" gradientTransform="matrix(420.627,0,0,420.627,-297.258,690.798)"><stop offset="0" style="stop-color:rgb(0,132,176);stop-opacity:1"/><stop offset="1" style="stop-color:rgb(0,163,86);stop-opacity:1"/></linearGradient>
        <linearGradient id="_Linear35" x1="0" y1="0" x2="1" y2="0" gradientUnits="userSpaceOnUse" gradientTransform="matrix(420.627,0,0,420.627,-297.258,690.798)"><stop offset="0" style="stop-color:rgb(0,132,176);stop-opacity:1"/><stop offset="1" style="stop-color:rgb(0,163,86);stop-opacity:1"/></linearGradient>
        <linearGradient id="_Linear36" x1="0" y1="0" x2="1" y2="0" gradientUnits="userSpaceOnUse" gradientTransform="matrix(420.627,0,0,420.627,-297.258,690.798)"><stop offset="0" style="stop-color:rgb(0,132,176);stop-opacity:1"/><stop offset="1" style="stop-color:rgb(0,163,86);stop-opacity:1"/></linearGradient>
        <linearGradient id="_Linear37" x1="0" y1="0" x2="1" y2="0" gradientUnits="userSpaceOnUse" gradientTransform="matrix(420.627,0,0,420.627,-297.258,690.798)"><stop offset="0" style="stop-color:rgb(0,132,176);stop-opacity:1"/><stop offset="1" style="stop-color:rgb(0,163,86);stop-opacity:1"/></linearGradient>
    </defs>
</svg>
